<svg width="33" height="22" viewBox="0 0 33 22" fill="none" xmlns="http://www.w3.org/2000/svg">
<path d="M9.8505 16.1963H9.80915L9.77987 16.2255L4.88126 21.1125C4.35287 21.5862 3.65079 21.9 2.8875 21.9C2.14781 21.9 1.43866 21.6098 0.915999 21.0936C0.393377 20.5774 0.1 19.8776 0.1 19.1481V18.7476L1.74907 6.72767L1.74917 6.72768L1.74958 6.72324C2.09133 3.01039 5.23255 0.1 9.075 0.1H23.925C27.7675 0.1 30.9087 3.01039 31.2504 6.72324L31.2503 6.72325L31.2509 6.72767L32.9 18.7475V19.1481C32.9 19.8776 32.6066 20.5774 32.084 21.0936C31.5613 21.6098 30.8522 21.9 30.1125 21.9C29.3492 21.9 28.6471 21.5862 28.1187 21.1125L23.2201 16.2255L23.1909 16.1963H23.1495H9.8505ZM8.25 3.15926H8.15V3.25926V6.41852H4.95H4.85V6.51852V8.14815V8.24815H4.95H8.15V11.4074V11.5074H8.25H9.9H10V11.4074V8.24815H13.2H13.3V8.14815V6.51852V6.41852H13.2H10V3.25926V3.15926H9.9H8.25ZM23.925 3.15926C23.5707 3.15926 23.2306 3.29827 22.9797 3.54609C22.7287 3.79396 22.5875 4.1304 22.5875 4.48148C22.5875 4.83256 22.7287 5.169 22.9797 5.41687C23.2306 5.6647 23.5707 5.8037 23.925 5.8037C24.2793 5.8037 24.6194 5.6647 24.8703 5.41687C25.1213 5.169 25.2625 4.83256 25.2625 4.48148C25.2625 4.1304 25.1213 3.79396 24.8703 3.54609C24.6194 3.29827 24.2793 3.15926 23.925 3.15926ZM21.0375 6.01111C20.6832 6.01111 20.3431 6.15012 20.0922 6.39794C19.8412 6.64581 19.7 6.98225 19.7 7.33333C19.7 7.68441 19.8412 8.02086 20.0922 8.26872C20.3431 8.51655 20.6832 8.65556 21.0375 8.65556C21.3918 8.65556 21.7319 8.51655 21.9828 8.26872C22.2338 8.02086 22.375 7.68441 22.375 7.33333C22.375 6.98225 22.2338 6.64581 21.9828 6.39794C21.7319 6.15012 21.3918 6.01111 21.0375 6.01111ZM26.8125 6.01111C26.4582 6.01111 26.1181 6.15012 25.8672 6.39794C25.6162 6.64581 25.475 6.98225 25.475 7.33333C25.475 7.68441 25.6162 8.02086 25.8672 8.26872C26.1181 8.51655 26.4582 8.65556 26.8125 8.65556C27.1668 8.65556 27.5069 8.51655 27.7578 8.26872C28.0088 8.02086 28.15 7.68441 28.15 7.33333C28.15 6.98225 28.0088 6.64581 27.7578 6.39794C27.5069 6.15012 27.1668 6.01111 26.8125 6.01111ZM23.925 8.86296C23.5707 8.86296 23.2306 9.00197 22.9797 9.2498C22.7287 9.49766 22.5875 9.83411 22.5875 10.1852C22.5875 10.5363 22.7287 10.8727 22.9797 11.1206C23.2306 11.3684 23.5707 11.5074 23.925 11.5074C24.2793 11.5074 24.6194 11.3684 24.8703 11.1206C25.1213 10.8727 25.2625 10.5363 25.2625 10.1852C25.2625 9.83411 25.1213 9.49766 24.8703 9.2498C24.6194 9.00197 24.2793 8.86296 23.925 8.86296Z" fill="#157347" stroke="white" stroke-width="0.2"/>
</svg>
